{"asset":{"version":"2.0","generator":"Blockbench 5.0.4 glTF exporter"},"scenes":[{"nodes":[7,8,9,10,15],"name":"blockbench_export"}],"scene":0,"nodes":[{"translation":[0,-0.34999999999999987,-0.4375],"name":"beveled_cuboid","mesh":0},{"translation":[0,0.44999999999999996,0.1875],"name":"beveled_cuboid","mesh":1},{"translation":[0,0.44999999999999996,-1.0687499999999996],"name":"beveled_cuboid","mesh":2},{"translation":[0.375,0.39999999999999986,-0.4375],"name":"beveled_cuboid","mesh":3},{"translation":[-0.375,0.39999999999999986,-0.4375],"name":"beveled_cuboid","mesh":4},{"translation":[0,1.15,-0.4375],"name":"beveled_cuboid","mesh":5},{"translation":[0,-0.2437500000000001,-0.44999999999999996],"name":"beveled_cuboid","mesh":6},{"translation":[0,0,0.5],"name":"Shrine","children":[0,1,2,3,4,5,6]},{"translation":[0,1.068750000000001,0.1],"name":"torus","mesh":7},{"translation":[0,0.7500000000000009,0.08125],"name":"torus","mesh":8},{"translation":[0,1.5500000000000012,0.06875],"name":"torus","mesh":9},{"translation":[0,-0.24999999999999978,0],"name":"beveled_cuboid","mesh":10},{"rotation":[0.7071067811865475,0,0,0.7071067811865476],"name":"beveled_cuboid","mesh":11},{"rotation":[0.36650122672429725,0,0,0.9304175679820246],"name":"beveled_cuboid","mesh":12},{"rotation":[-0.40673664307580015,0,0,0.9135454576426009],"name":"beveled_cuboid","mesh":13},{"translation":[-0.012499999999999914,0.3562499999999996,0.06875000000000009],"name":"icon","children":[11,12,13,14]}],"bufferViews":[{"buffer":0,"byteOffset":0,"byteLength":1152,"target":34962,"byteStride":12},{"buffer":0,"byteOffset":1152,"byteLength":1152,"target":34962,"byteStride":12},{"buffer":0,"byteOffset":2304,"byteLength":768,"target":34962,"byteStride":8},{"buffer":0,"byteOffset":3072,"byteLength":264,"target":34963},{"buffer":0,"byteOffset":3336,"byteLength":1152,"target":34962,"byteStride":12},{"buffer":0,"byteOffset":4488,"byteLength":1152,"target":34962,"byteStride":12},{"buffer":0,"byteOffset":5640,"byteLength":768,"target":34962,"byteStride":8},{"buffer":0,"byteOffset":6408,"byteLength":264,"target":34963},{"buffer":0,"byteOffset":6672,"byteLength":1152,"target":34962,"byteStride":12},{"buffer":0,"byteOffset":7824,"byteLength":1152,"target":34962,"byteStride":12},{"buffer":0,"byteOffset":8976,"byteLength":768,"target":34962,"byteStride":8},{"buffer":0,"byteOffset":9744,"byteLength":264,"target":34963},{"buffer":0,"byteOffset":10008,"byteLength":1152,"target":34962,"byteStride":12},{"buffer":0,"byteOffset":11160,"byteLength":1152,"target":34962,"byteStride":12},{"buffer":0,"byteOffset":12312,"byteLength":768,"target":34962,"byteStride":8},{"buffer":0,"byteOffset":13080,"byteLength":264,"target":34963},{"buffer":0,"byteOffset":13344,"byteLength":1152,"target":34962,"byteStride":12},{"buffer":0,"byteOffset":14496,"byteLength":1152,"target":34962,"byteStride":12},{"buffer":0,"byteOffset":15648,"byteLength":768,"target":34962,"byteStride":8},{"buffer":0,"byteOffset":16416,"byteLength":264,"target":34963},{"buffer":0,"byteOffset":16680,"byteLength":1152,"target":34962,"byteStride":12},{"buffer":0,"byteOffset":17832,"byteLength":1152,"target":34962,"byteStride":12},{"buffer":0,"byteOffset":18984,"byteLength":768,"target":34962,"byteStride":8},{"buffer":0,"byteOffset":19752,"byteLength":264,"target":34963},{"buffer":0,"byteOffset":20016,"byteLength":1152,"target":34962,"byteStride":12},{"buffer":0,"byteOffset":21168,"byteLength":1152,"target":34962,"byteStride":12},{"buffer":0,"byteOffset":22320,"byteLength":768,"target":34962,"byteStride":8},{"buffer":0,"byteOffset":23088,"byteLength":264,"target":34963},{"buffer":0,"byteOffset":23352,"byteLength":4608,"target":34962,"byteStride":12},{"buffer":0,"byteOffset":27960,"byteLength":4608,"target":34962,"byteStride":12},{"buffer":0,"byteOffset":32568,"byteLength":3072,"target":34962,"byteStride":8},{"buffer":0,"byteOffset":35640,"byteLength":1152,"target":34963},{"buffer":0,"byteOffset":36792,"byteLength":4608,"target":34962,"byteStride":12},{"buffer":0,"byteOffset":41400,"byteLength":4608,"target":34962,"byteStride":12},{"buffer":0,"byteOffset":46008,"byteLength":3072,"target":34962,"byteStride":8},{"buffer":0,"byteOffset":49080,"byteLength":1152,"target":34963},{"buffer":0,"byteOffset":50232,"byteLength":4608,"target":34962,"byteStride":12},{"buffer":0,"byteOffset":54840,"byteLength":4608,"target":34962,"byteStride":12},{"buffer":0,"byteOffset":59448,"byteLength":3072,"target":34962,"byteStride":8},{"buffer":0,"byteOffset":62520,"byteLength":1152,"target":34963},{"buffer":0,"byteOffset":63672,"byteLength":1152,"target":34962,"byteStride":12},{"buffer":0,"byteOffset":64824,"byteLength":1152,"target":34962,"byteStride":12},{"buffer":0,"byteOffset":65976,"byteLength":768,"target":34962,"byteStride":8},{"buffer":0,"byteOffset":66744,"byteLength":264,"target":34963},{"buffer":0,"byteOffset":67008,"byteLength":1152,"target":34962,"byteStride":12},{"buffer":0,"byteOffset":68160,"byteLength":1152,"target":34962,"byteStride":12},{"buffer":0,"byteOffset":69312,"byteLength":768,"target":34962,"byteStride":8},{"buffer":0,"byteOffset":70080,"byteLength":264,"target":34963},{"buffer":0,"byteOffset":70344,"byteLength":1152,"target":34962,"byteStride":12},{"buffer":0,"byteOffset":71496,"byteLength":1152,"target":34962,"byteStride":12},{"buffer":0,"byteOffset":72648,"byteLength":768,"target":34962,"byteStride":8},{"buffer":0,"byteOffset":73416,"byteLength":264,"target":34963},{"buffer":0,"byteOffset":73680,"byteLength":1152,"target":34962,"byteStride":12},{"buffer":0,"byteOffset":74832,"byteLength":1152,"target":34962,"byteStride":12},{"buffer":0,"byteOffset":75984,"byteLength":768,"target":34962,"byteStride":8},{"buffer":0,"byteOffset":76752,"byteLength":264,"target":34963},{"buffer":0,"byteOffset":77016,"byteLength":24},{"buffer":0,"byteOffset":77040,"byteLength":96},{"buffer":0,"byteOffset":77136,"byteLength":20},{"buffer":0,"byteOffset":77156,"byteLength":60}],"buffers":[{"byteLength":77216,"uri":"data:application/octet-stream;base64,"}],"accessors":[{"bufferView":0,"componentType":5126,"count":96,"max":[0.5,0.3125,0.625],"min":[-0.5,0.1875,-0.625],"type":"VEC3"},{"bufferView":1,"componentType":5126,"count":96,"max":[1,1,1],"min":[-1,-1,-1],"type":"VEC3"},{"bufferView":2,"componentType":5126,"count":96,"max":[0.765625,0.5390625],"min":[0.0625,0],"type":"VEC2"},{"bufferView":3,"componentType":5123,"count":132,"max":[95],"min":[0],"type":"SCALAR"},{"bufferView":4,"componentType":5126,"count":96,"max":[0.125,1.0625,0.125],"min":[-0.125,-0.5625,-0.125],"type":"VEC3"},{"bufferView":5,"componentType":5126,"count":96,"max":[1,1,1],"min":[-1,-1,-1],"type":"VEC3"},{"bufferView":6,"componentType":5126,"count":96,"max":[0.5680249929428101,0.8204624652862549],"min":[0,0.046875],"type":"VEC2"},{"bufferView":7,"componentType":5123,"count":132,"max":[95],"min":[0],"type":"SCALAR"},{"bufferView":8,"componentType":5126,"count":96,"max":[0.125,1.0625,0.125],"min":[-0.125,-0.5625,-0.125],"type":"VEC3"},{"bufferView":9,"componentType":5126,"count":96,"max":[1,1,1],"min":[-1,-1,-1],"type":"VEC3"},{"bufferView":10,"componentType":5126,"count":96,"max":[0.5836499929428101,0.8595249652862549],"min":[0.0234375,0],"type":"VEC2"},{"bufferView":11,"componentType":5123,"count":132,"max":[95],"min":[0],"type":"SCALAR"},{"bufferView":12,"componentType":5126,"count":96,"max":[0.125,0.956250011920929,0.125],"min":[-0.125,-0.45625001192092896,-0.125],"type":"VEC3"},{"bufferView":13,"componentType":5126,"count":96,"max":[1,1,1],"min":[-1,-1,-1],"type":"VEC3"},{"bufferView":14,"componentType":5126,"count":96,"max":[0.6148999929428101,0.8329851627349854],"min":[0.0390625,0.21875],"type":"VEC2"},{"bufferView":15,"componentType":5123,"count":132,"max":[95],"min":[0],"type":"SCALAR"},{"bufferView":16,"componentType":5126,"count":96,"max":[0.125,0.956250011920929,0.125],"min":[-0.125,-0.45625001192092896,-0.125],"type":"VEC3"},{"bufferView":17,"componentType":5126,"count":96,"max":[1,1,1],"min":[-1,-1,-1],"type":"VEC3"},{"bufferView":18,"componentType":5126,"count":96,"max":[0.6640625,0.8407976627349854],"min":[0,0.296875],"type":"VEC2"},{"bufferView":19,"componentType":5123,"count":132,"max":[95],"min":[0],"type":"SCALAR"},{"bufferView":20,"componentType":5126,"count":96,"max":[0.5,0.3125,0.625],"min":[-0.5,0.1875,-0.625],"type":"VEC3"},{"bufferView":21,"componentType":5126,"count":96,"max":[1,1,1],"min":[-1,-1,-1],"type":"VEC3"},{"bufferView":22,"componentType":5126,"count":96,"max":[0.7890625,0.6875],"min":[0.003425781149417162,0],"type":"VEC2"},{"bufferView":23,"componentType":5123,"count":132,"max":[95],"min":[0],"type":"SCALAR"},{"bufferView":24,"componentType":5126,"count":96,"max":[0.125,0.3062500059604645,0.125],"min":[-0.125,0.19374999403953552,-0.125],"type":"VEC3"},{"bufferView":25,"componentType":5126,"count":96,"max":[1,1,1],"min":[-1,-1,-1],"type":"VEC3"},{"bufferView":26,"componentType":5126,"count":96,"max":[0.723450243473053,0.6953125],"min":[0,0.0625],"type":"VEC2"},{"bufferView":27,"componentType":5123,"count":132,"max":[95],"min":[0],"type":"SCALAR"},{"bufferView":28,"componentType":5126,"count":384,"max":[0.625,0.129409521818161,0.625],"min":[-0.625,-0.129409521818161,-0.625],"type":"VEC3"},{"bufferView":29,"componentType":5126,"count":384,"max":[0.9284448027610779,0.919060468673706,0.9284448027610779],"min":[-0.9284448027610779,-0.919060468673706,-0.9284448027610779],"type":"VEC3"},{"bufferView":30,"componentType":5126,"count":384,"max":[0.7322251796722412,0.6953125],"min":[0.00019081251230090857,0.0033295750617980957],"type":"VEC2"},{"bufferView":31,"componentType":5123,"count":576,"max":[383],"min":[0],"type":"SCALAR"},{"bufferView":32,"componentType":5126,"count":384,"max":[0.375,0.129409521818161,0.3375000059604645],"min":[-0.375,-0.129409521818161,-0.3375000059604645],"type":"VEC3"},{"bufferView":33,"componentType":5126,"count":384,"max":[0.9723741412162781,0.8135705590248108,0.977446973323822],"min":[-0.9723741412162781,-0.8135705590248108,-0.977446973323822],"type":"VEC3"},{"bufferView":34,"componentType":5126,"count":384,"max":[0.7001107335090637,0.6737736463546753],"min":[0.06286796927452087,0.006662249565124512],"type":"VEC2"},{"bufferView":35,"componentType":5123,"count":576,"max":[383],"min":[0],"type":"SCALAR"},{"bufferView":36,"componentType":5126,"count":384,"max":[0.39375001192092896,0.129409521818161,0.34375],"min":[-0.39375001192092896,-0.129409521818161,-0.34375],"type":"VEC3"},{"bufferView":37,"componentType":5126,"count":384,"max":[0.9696700572967529,0.8266668319702148,0.9766332507133484],"min":[-0.9696700572967529,-0.8266668319702148,-0.9766332507133484],"type":"VEC3"},{"bufferView":38,"componentType":5126,"count":384,"max":[0.6950396299362183,0.625],"min":[0.00022968750272411853,0],"type":"VEC2"},{"bufferView":39,"componentType":5123,"count":576,"max":[383],"min":[0],"type":"SCALAR"},{"bufferView":40,"componentType":5126,"count":96,"max":[0.03125,0.4124999940395355,0.02500000037252903],"min":[-0.03125,0.08749999850988388,-0.02500000037252903],"type":"VEC3"},{"bufferView":41,"componentType":5126,"count":96,"max":[1,1,1],"min":[-1,-1,-1],"type":"VEC3"},{"bufferView":42,"componentType":5126,"count":96,"max":[0.65625,0.7876437306404114],"min":[0.00390625,0],"type":"VEC2"},{"bufferView":43,"componentType":5123,"count":132,"max":[95],"min":[0],"type":"SCALAR"},{"bufferView":44,"componentType":5126,"count":96,"max":[0.03125,0.16249999403953552,0.02500000037252903],"min":[-0.03125,-0.16249999403953552,-0.02500000037252903],"type":"VEC3"},{"bufferView":45,"componentType":5126,"count":96,"max":[1,1,1],"min":[-1,-1,-1],"type":"VEC3"},{"bufferView":46,"componentType":5126,"count":96,"max":[0.53125,0.6626437902450562],"min":[0.00390625,0],"type":"VEC2"},{"bufferView":47,"componentType":5123,"count":132,"max":[95],"min":[0],"type":"SCALAR"},{"bufferView":48,"componentType":5126,"count":96,"max":[0.03125,0.16249999403953552,0.02500000037252903],"min":[-0.03125,-0.16249999403953552,-0.02500000037252903],"type":"VEC3"},{"bufferView":49,"componentType":5126,"count":96,"max":[1,1,1],"min":[-1,-1,-1],"type":"VEC3"},{"bufferView":50,"componentType":5126,"count":96,"max":[0.59375,0.6626437902450562],"min":[0.0062500000931322575,0],"type":"VEC2"},{"bufferView":51,"componentType":5123,"count":132,"max":[95],"min":[0],"type":"SCALAR"},{"bufferView":52,"componentType":5126,"count":96,"max":[0.03125,0.16249999403953552,0.02500000037252903],"min":[-0.03125,-0.16249999403953552,-0.02500000037252903],"type":"VEC3"},{"bufferView":53,"componentType":5126,"count":96,"max":[1,1,1],"min":[-1,-1,-1],"type":"VEC3"},{"bufferView":54,"componentType":5126,"count":96,"max":[0.53125,0.6626437902450562],"min":[0.0625,0],"type":"VEC2"},{"bufferView":55,"componentType":5123,"count":132,"max":[95],"min":[0],"type":"SCALAR"},{"bufferView":56,"componentType":5126,"count":6,"max":[1],"min":[0],"type":"SCALAR"},{"bufferView":57,"componentType":5126,"count":6,"max":[0,0.9928096532821655,0,1],"min":[0,0,0,-0.11970365792512894],"type":"VEC4"},{"bufferView":58,"componentType":5126,"count":5,"max":[1],"min":[0],"type":"SCALAR"},{"bufferView":59,"componentType":5126,"count":5,"max":[-0.012500000186264515,0.41874998807907104,0.06875000149011612],"min":[-0.012500000186264515,0.2750000059604645,0.06875000149011612],"type":"VEC3"}],"materials":[{"pbrMetallicRoughness":{"metallicFactor":0,"roughnessFactor":1,"baseColorTexture":{"index":0}},"alphaMode":"MASK","alphaCutoff":0.05,"doubleSided":true},{"pbrMetallicRoughness":{"metallicFactor":0,"roughnessFactor":1,"baseColorTexture":{"index":1}},"alphaMode":"MASK","alphaCutoff":0.05,"doubleSided":true}],"textures":[{"sampler":0,"source":0,"name":"shrine"},{"sampler":1,"source":1,"name":"icon"}],"samplers":[{"magFilter":9728,"minFilter":9728,"wrapS":33071,"wrapT":33071},{"magFilter":9728,"minFilter":9728,"wrapS":33071,"wrapT":33071}],"images":[{"mimeType":"image/png","uri":"data:image/png;base64,"},{"mimeType":"image/png","uri":"data:image/png;base64,"}],"meshes":[{"primitives":[{"mode":4,"attributes":{"POSITION":0,"NORMAL":1,"TEXCOORD_0":2},"indices":3,"material":0}]},{"primitives":[{"mode":4,"attributes":{"POSITION":4,"NORMAL":5,"TEXCOORD_0":6},"indices":7,"material":0}]},{"primitives":[{"mode":4,"attributes":{"POSITION":8,"NORMAL":9,"TEXCOORD_0":10},"indices":11,"material":0}]},{"primitives":[{"mode":4,"attributes":{"POSITION":12,"NORMAL":13,"TEXCOORD_0":14},"indices":15,"material":0}]},{"primitives":[{"mode":4,"attributes":{"POSITION":16,"NORMAL":17,"TEXCOORD_0":18},"indices":19,"material":0}]},{"primitives":[{"mode":4,"attributes":{"POSITION":20,"NORMAL":21,"TEXCOORD_0":22},"indices":23,"material":0}]},{"primitives":[{"mode":4,"attributes":{"POSITION":24,"NORMAL":25,"TEXCOORD_0":26},"indices":27,"material":0}]},{"primitives":[{"mode":4,"attributes":{"POSITION":28,"NORMAL":29,"TEXCOORD_0":30},"indices":31,"material":0}]},{"primitives":[{"mode":4,"attributes":{"POSITION":32,"NORMAL":33,"TEXCOORD_0":34},"indices":35,"material":0}]},{"primitives":[{"mode":4,"attributes":{"POSITION":36,"NORMAL":37,"TEXCOORD_0":38},"indices":39,"material":0}]},{"primitives":[{"mode":4,"attributes":{"POSITION":40,"NORMAL":41,"TEXCOORD_0":42},"indices":43,"material":1}]},{"primitives":[{"mode":4,"attributes":{"POSITION":44,"NORMAL":45,"TEXCOORD_0":46},"indices":47,"material":1}]},{"primitives":[{"mode":4,"attributes":{"POSITION":48,"NORMAL":49,"TEXCOORD_0":50},"indices":51,"material":1}]},{"primitives":[{"mode":4,"attributes":{"POSITION":52,"NORMAL":53,"TEXCOORD_0":54},"indices":55,"material":1}]}],"animations":[{"name":"spin","samplers":[{"input":56,"output":57,"interpolation":"LINEAR"},{"input":58,"output":59,"interpolation":"LINEAR"}],"channels":[{"sampler":0,"target":{"node":15,"path":"rotation"}},{"sampler":1,"target":{"node":15,"path":"translation"}}]}]}