{"asset":{"version":"2.0","generator":"Blockbench 5.0.4 glTF exporter"},"scenes":[{"nodes":[24],"name":"blockbench_export"}],"scene":0,"nodes":[{"translation":[0,1.04375,-0.0125],"name":"beveled_cuboid","mesh":0},{"translation":[0,1.49375,0],"name":"beveled_cuboid","mesh":1},{"rotation":[-0.05233595624294383,0,0,0.9986295347545738],"translation":[0,0.11874999999999991,-0.04375],"name":"beveled_cuboid","mesh":2},{"translation":[0,0.2437499999999999,-0.06875],"name":"beveled_cuboid","mesh":3},{"translation":[0,0.5562499999999999,-0.03125],"name":"pyramid","mesh":4},{"rotation":[-0.6018150231520483,0,0,0.7986355100472928],"name":"beveled_cuboid","mesh":5},{"rotation":[-0.7575649843840496,0,0,0.6527597524627224],"translation":[0,0.11249999999999982,0.41875],"name":"beveled_cuboid","mesh":6},{"rotation":[-0.21456612886753254,0.6852071502042416,0.5078663592906913,0.47594568886859523],"translation":[0,0.23124999999999973,-0.06875],"name":"beveled_cuboid","mesh":7},{"rotation":[-0.21456612886753254,-0.6852071502042416,-0.5078663592906913,0.47594568886859523],"translation":[0,0.23124999999999973,-0.06875],"name":"beveled_cuboid","mesh":8},{"translation":[0,2.1375,0.00625],"name":"Head","children":[2,3,4,5,6,7,8]},{"rotation":[0,0,0.46174861323503386,0.8870108331782217],"translation":[0.012499999999999956,-0.06249999999999911,0],"name":"beveled_cuboid","mesh":9},{"rotation":[0,0,-0.10452846326765346,0.9945218953682733],"translation":[-0.15000000000000008,-0.8750000000000007,0],"name":"cylinder","mesh":10},{"translation":[-0.3125,2.24375,0],"name":"Arm_Left","children":[10,11]},{"rotation":[0,0,-0.46174861323503386,0.8870108331782217],"translation":[-0.2514050441839041,-0.2252155046356057,-9.607699251563854e-18],"name":"beveled_cuboid","mesh":11},{"rotation":[0,0,0.10452846326765346,0.9945218953682733],"translation":[0.09859495581609601,-0.9127155046356072,-9.607699251563854e-18],"name":"cylinder","mesh":12},{"translation":[0.36390504418390407,2.2814655046356065,9.607699251563854e-18],"name":"Arm_Right","children":[13,14]},{"translation":[-0.025000000000000022,-0.7875000000000008,0],"name":"cylinder","mesh":13},{"translation":[-0.024999999999999994,-1.35625,-0.056249999999999946],"name":"cuboid","mesh":14},{"translation":[-0.024999999999999994,-1.19375,-0.0062499999999999865],"name":"cuboid","mesh":15},{"translation":[-0.1875,1.1375000000000002,0.00625],"name":"Leg_Left","children":[16,17,18]},{"translation":[0.225,-1.11875,1.3877787807814457e-17],"name":"cuboid","mesh":16},{"translation":[0.225,-1.2812499999999998,-0.04999999999999995],"name":"cuboid","mesh":17},{"translation":[0.21250000000000002,-0.7125000000000006,0.00625],"name":"cylinder","mesh":18},{"translation":[0,1.0625,0],"name":"Leg_Right","children":[20,21,22]},{"name":"Body","children":[0,1,9,12,15,19,23]}],"bufferViews":[{"buffer":0,"byteOffset":0,"byteLength":1152,"target":34962,"byteStride":12},{"buffer":0,"byteOffset":1152,"byteLength":1152,"target":34962,"byteStride":12},{"buffer":0,"byteOffset":2304,"byteLength":768,"target":34962,"byteStride":8},{"buffer":0,"byteOffset":3072,"byteLength":264,"target":34963},{"buffer":0,"byteOffset":3336,"byteLength":1152,"target":34962,"byteStride":12},{"buffer":0,"byteOffset":4488,"byteLength":1152,"target":34962,"byteStride":12},{"buffer":0,"byteOffset":5640,"byteLength":768,"target":34962,"byteStride":8},{"buffer":0,"byteOffset":6408,"byteLength":264,"target":34963},{"buffer":0,"byteOffset":6672,"byteLength":1536,"target":34962,"byteStride":12},{"buffer":0,"byteOffset":8208,"byteLength":1536,"target":34962,"byteStride":12},{"buffer":0,"byteOffset":9744,"byteLength":1024,"target":34962,"byteStride":8},{"buffer":0,"byteOffset":10768,"byteLength":360,"target":34963},{"buffer":0,"byteOffset":11128,"byteLength":1152,"target":34962,"byteStride":12},{"buffer":0,"byteOffset":12280,"byteLength":1152,"target":34962,"byteStride":12},{"buffer":0,"byteOffset":13432,"byteLength":768,"target":34962,"byteStride":8},{"buffer":0,"byteOffset":14200,"byteLength":264,"target":34963},{"buffer":0,"byteOffset":14464,"byteLength":3072,"target":34962,"byteStride":12},{"buffer":0,"byteOffset":17536,"byteLength":3072,"target":34962,"byteStride":12},{"buffer":0,"byteOffset":20608,"byteLength":2048,"target":34962,"byteStride":8},{"buffer":0,"byteOffset":22656,"byteLength":756,"target":34963},{"buffer":0,"byteOffset":23412,"byteLength":1152,"target":34962,"byteStride":12},{"buffer":0,"byteOffset":24564,"byteLength":1152,"target":34962,"byteStride":12},{"buffer":0,"byteOffset":25716,"byteLength":768,"target":34962,"byteStride":8},{"buffer":0,"byteOffset":26484,"byteLength":264,"target":34963},{"buffer":0,"byteOffset":26748,"byteLength":1152,"target":34962,"byteStride":12},{"buffer":0,"byteOffset":27900,"byteLength":1152,"target":34962,"byteStride":12},{"buffer":0,"byteOffset":29052,"byteLength":768,"target":34962,"byteStride":8},{"buffer":0,"byteOffset":29820,"byteLength":264,"target":34963},{"buffer":0,"byteOffset":30084,"byteLength":1152,"target":34962,"byteStride":12},{"buffer":0,"byteOffset":31236,"byteLength":1152,"target":34962,"byteStride":12},{"buffer":0,"byteOffset":32388,"byteLength":768,"target":34962,"byteStride":8},{"buffer":0,"byteOffset":33156,"byteLength":264,"target":34963},{"buffer":0,"byteOffset":33420,"byteLength":1152,"target":34962,"byteStride":12},{"buffer":0,"byteOffset":34572,"byteLength":1152,"target":34962,"byteStride":12},{"buffer":0,"byteOffset":35724,"byteLength":768,"target":34962,"byteStride":8},{"buffer":0,"byteOffset":36492,"byteLength":264,"target":34963},{"buffer":0,"byteOffset":36756,"byteLength":1152,"target":34962,"byteStride":12},{"buffer":0,"byteOffset":37908,"byteLength":1152,"target":34962,"byteStride":12},{"buffer":0,"byteOffset":39060,"byteLength":768,"target":34962,"byteStride":8},{"buffer":0,"byteOffset":39828,"byteLength":264,"target":34963},{"buffer":0,"byteOffset":40092,"byteLength":1440,"target":34962,"byteStride":12},{"buffer":0,"byteOffset":41532,"byteLength":1440,"target":34962,"byteStride":12},{"buffer":0,"byteOffset":42972,"byteLength":960,"target":34962,"byteStride":8},{"buffer":0,"byteOffset":43932,"byteLength":288,"target":34963},{"buffer":0,"byteOffset":44220,"byteLength":1152,"target":34962,"byteStride":12},{"buffer":0,"byteOffset":45372,"byteLength":1152,"target":34962,"byteStride":12},{"buffer":0,"byteOffset":46524,"byteLength":768,"target":34962,"byteStride":8},{"buffer":0,"byteOffset":47292,"byteLength":264,"target":34963},{"buffer":0,"byteOffset":47556,"byteLength":1440,"target":34962,"byteStride":12},{"buffer":0,"byteOffset":48996,"byteLength":1440,"target":34962,"byteStride":12},{"buffer":0,"byteOffset":50436,"byteLength":960,"target":34962,"byteStride":8},{"buffer":0,"byteOffset":51396,"byteLength":288,"target":34963},{"buffer":0,"byteOffset":51684,"byteLength":1440,"target":34962,"byteStride":12},{"buffer":0,"byteOffset":53124,"byteLength":1440,"target":34962,"byteStride":12},{"buffer":0,"byteOffset":54564,"byteLength":960,"target":34962,"byteStride":8},{"buffer":0,"byteOffset":55524,"byteLength":288,"target":34963},{"buffer":0,"byteOffset":55812,"byteLength":288,"target":34962,"byteStride":12},{"buffer":0,"byteOffset":56100,"byteLength":288,"target":34962,"byteStride":12},{"buffer":0,"byteOffset":56388,"byteLength":192,"target":34962,"byteStride":8},{"buffer":0,"byteOffset":56580,"byteLength":72,"target":34963},{"buffer":0,"byteOffset":56652,"byteLength":288,"target":34962,"byteStride":12},{"buffer":0,"byteOffset":56940,"byteLength":288,"target":34962,"byteStride":12},{"buffer":0,"byteOffset":57228,"byteLength":192,"target":34962,"byteStride":8},{"buffer":0,"byteOffset":57420,"byteLength":72,"target":34963},{"buffer":0,"byteOffset":57492,"byteLength":288,"target":34962,"byteStride":12},{"buffer":0,"byteOffset":57780,"byteLength":288,"target":34962,"byteStride":12},{"buffer":0,"byteOffset":58068,"byteLength":192,"target":34962,"byteStride":8},{"buffer":0,"byteOffset":58260,"byteLength":72,"target":34963},{"buffer":0,"byteOffset":58332,"byteLength":288,"target":34962,"byteStride":12},{"buffer":0,"byteOffset":58620,"byteLength":288,"target":34962,"byteStride":12},{"buffer":0,"byteOffset":58908,"byteLength":192,"target":34962,"byteStride":8},{"buffer":0,"byteOffset":59100,"byteLength":72,"target":34963},{"buffer":0,"byteOffset":59172,"byteLength":1440,"target":34962,"byteStride":12},{"buffer":0,"byteOffset":60612,"byteLength":1440,"target":34962,"byteStride":12},{"buffer":0,"byteOffset":62052,"byteLength":960,"target":34962,"byteStride":8},{"buffer":0,"byteOffset":63012,"byteLength":288,"target":34963},{"buffer":0,"byteOffset":63300,"byteLength":20},{"buffer":0,"byteOffset":63320,"byteLength":80},{"buffer":0,"byteOffset":63400,"byteLength":20},{"buffer":0,"byteOffset":63420,"byteLength":80},{"buffer":0,"byteOffset":63500,"byteLength":20},{"buffer":0,"byteOffset":63520,"byteLength":80},{"buffer":0,"byteOffset":63600,"byteLength":12},{"buffer":0,"byteOffset":63612,"byteLength":36},{"buffer":0,"byteOffset":63648,"byteLength":20},{"buffer":0,"byteOffset":63668,"byteLength":80},{"buffer":0,"byteOffset":63748,"byteLength":12},{"buffer":0,"byteOffset":63760,"byteLength":36}],"buffers":[{"byteLength":63796,"uri":"data:application/octet-stream;base64,"}],"accessors":[{"bufferView":0,"componentType":5126,"count":96,"max":[0.32499998807907104,0.3499999940395355,0.1875],"min":[-0.32499998807907104,0.15000000596046448,-0.1875],"type":"VEC3"},{"bufferView":1,"componentType":5126,"count":96,"max":[1,1,1],"min":[-1,-1,-1],"type":"VEC3"},{"bufferView":2,"componentType":5126,"count":96,"max":[0.7156500220298767,0.53125],"min":[0,0],"type":"VEC2"},{"bufferView":3,"componentType":5123,"count":132,"max":[95],"min":[0],"type":"SCALAR"},{"bufferView":4,"componentType":5126,"count":96,"max":[0.3062500059604645,0.7749999761581421,0.1875],"min":[-0.3062500059604645,-0.2750000059604645,-0.1875],"type":"VEC3"},{"bufferView":5,"componentType":5126,"count":96,"max":[1,1,1],"min":[-1,-1,-1],"type":"VEC3"},{"bufferView":6,"componentType":5126,"count":96,"max":[0.421875,0.5492187738418579],"min":[0.00390625,0],"type":"VEC2"},{"bufferView":7,"componentType":5123,"count":132,"max":[95],"min":[0],"type":"SCALAR"},{"bufferView":8,"componentType":5126,"count":128,"max":[0.1875,0.5,0.25],"min":[-0.1875,0,-0.22499999403953552],"type":"VEC3"},{"bufferView":9,"componentType":5126,"count":128,"max":[1,1,0.9701424837112427],"min":[-1,-0.9894610643386841,-0.9743912220001221],"type":"VEC3"},{"bufferView":10,"componentType":5126,"count":128,"max":[0.5525370240211487,0.4959879517555237],"min":[0.09375,0],"type":"VEC2"},{"bufferView":11,"componentType":5123,"count":180,"max":[127],"min":[0],"type":"SCALAR"},{"bufferView":12,"componentType":5126,"count":96,"max":[0.375,0.3125,0.44999998807907104],"min":[-0.375,0.1875,-0.3375000059604645],"type":"VEC3"},{"bufferView":13,"componentType":5126,"count":96,"max":[1,1,1],"min":[-1,-1,-1],"type":"VEC3"},{"bufferView":14,"componentType":5126,"count":96,"max":[0.59375,0.4043499827384949],"min":[0.003425156231969595,0.0625],"type":"VEC2"},{"bufferView":15,"componentType":5123,"count":132,"max":[95],"min":[0],"type":"SCALAR"},{"bufferView":16,"componentType":5126,"count":256,"max":[0.24375000596046448,0.5,0.29374998807907104],"min":[-0.24375000596046448,0,-0.23749999701976776],"type":"VEC3"},{"bufferView":17,"componentType":5126,"count":256,"max":[0.9435117244720459,0.9927627444267273,0.9930755496025085],"min":[-0.9435117244720459,-1,-0.8618661761283875],"type":"VEC3"},{"bufferView":18,"componentType":5126,"count":256,"max":[0.6070082783699036,0.5625],"min":[0,0],"type":"VEC2"},{"bufferView":19,"componentType":5123,"count":378,"max":[255],"min":[0],"type":"SCALAR"},{"bufferView":20,"componentType":5126,"count":96,"max":[0.1875,0.3125,0.2874999940395355],"min":[-0.1875,0.1875,-0.2874999940395355],"type":"VEC3"},{"bufferView":21,"componentType":5126,"count":96,"max":[1,1,1],"min":[-1,-1,-1],"type":"VEC3"},{"bufferView":22,"componentType":5126,"count":96,"max":[0.5845538973808289,0.5390625],"min":[0.41678592562675476,0.1171875],"type":"VEC2"},{"bufferView":23,"componentType":5123,"count":132,"max":[95],"min":[0],"type":"SCALAR"},{"bufferView":24,"componentType":5126,"count":96,"max":[0.1875,0.3125,0.550000011920929],"min":[-0.1875,0.1875,-0.550000011920929],"type":"VEC3"},{"bufferView":25,"componentType":5126,"count":96,"max":[1,1,1],"min":[-1,-1,-1],"type":"VEC3"},{"bufferView":26,"componentType":5126,"count":96,"max":[0.6322218775749207,0.5546875],"min":[0.328125,0.0022484660148620605],"type":"VEC2"},{"bufferView":27,"componentType":5123,"count":132,"max":[95],"min":[0],"type":"SCALAR"},{"bufferView":28,"componentType":5126,"count":96,"max":[0.1875,0.3125,0.2874999940395355],"min":[-0.1875,0.1875,-0.2874999940395355],"type":"VEC3"},{"bufferView":29,"componentType":5126,"count":96,"max":[1,1,1],"min":[-1,-1,-1],"type":"VEC3"},{"bufferView":30,"componentType":5126,"count":96,"max":[0.6001788973808289,0.5625],"min":[0.0390625,0.0046250224113464355],"type":"VEC2"},{"bufferView":31,"componentType":5123,"count":132,"max":[95],"min":[0],"type":"SCALAR"},{"bufferView":32,"componentType":5126,"count":96,"max":[0.1875,0.3125,0.2874999940395355],"min":[-0.1875,0.1875,-0.2874999940395355],"type":"VEC3"},{"bufferView":33,"componentType":5126,"count":96,"max":[1,1,1],"min":[-1,-1,-1],"type":"VEC3"},{"bufferView":34,"componentType":5126,"count":96,"max":[0.09375,0.09375],"min":[0,0],"type":"VEC2"},{"bufferView":35,"componentType":5123,"count":132,"max":[95],"min":[0],"type":"SCALAR"},{"bufferView":36,"componentType":5126,"count":96,"max":[0.19265156984329224,0.08721193671226501,0.17499999701976776],"min":[-0.18234843015670776,-0.037788063287734985,-0.17499999701976776],"type":"VEC3"},{"bufferView":37,"componentType":5126,"count":96,"max":[1,1,1],"min":[-1,-1,-1],"type":"VEC3"},{"bufferView":38,"componentType":5126,"count":96,"max":[0.59375,0.546875],"min":[0.0679464340209961,0],"type":"VEC2"},{"bufferView":39,"componentType":5123,"count":132,"max":[95],"min":[0],"type":"SCALAR"},{"bufferView":40,"componentType":5126,"count":120,"max":[0.10000000149011612,0.8999999761581421,0.11249999701976776],"min":[-0.10000000149011612,-0.4000000059604645,-0.11249999701976776],"type":"VEC3"},{"bufferView":41,"componentType":5126,"count":120,"max":[1,1,1],"min":[-1,-1,-1],"type":"VEC3"},{"bufferView":42,"componentType":5126,"count":120,"max":[0.5562499761581421,0.653124988079071],"min":[0.0029046875424683094,0],"type":"VEC2"},{"bufferView":43,"componentType":5123,"count":144,"max":[119],"min":[0],"type":"SCALAR"},{"bufferView":44,"componentType":5126,"count":96,"max":[0.1875,0.3125,0.17499999701976776],"min":[-0.1875,0.1875,-0.17499999701976776],"type":"VEC3"},{"bufferView":45,"componentType":5126,"count":96,"max":[1,1,1],"min":[-1,-1,-1],"type":"VEC3"},{"bufferView":46,"componentType":5126,"count":96,"max":[0.1875,0.1875],"min":[0,0],"type":"VEC2"},{"bufferView":47,"componentType":5123,"count":132,"max":[95],"min":[0],"type":"SCALAR"},{"bufferView":48,"componentType":5126,"count":120,"max":[0.10000000149011612,0.8999999761581421,0.11249999701976776],"min":[-0.10000000149011612,-0.4000000059604645,-0.11249999701976776],"type":"VEC3"},{"bufferView":49,"componentType":5126,"count":120,"max":[1,1,1],"min":[-1,-1,-1],"type":"VEC3"},{"bufferView":50,"componentType":5126,"count":120,"max":[0.1294095516204834,0.1294095516204834],"min":[0,0],"type":"VEC2"},{"bufferView":51,"componentType":5123,"count":144,"max":[119],"min":[0],"type":"SCALAR"},{"bufferView":52,"componentType":5126,"count":120,"max":[0.11874999850988388,0.856249988079071,0.15625],"min":[-0.11874999850988388,-0.35624998807907104,-0.15625],"type":"VEC3"},{"bufferView":53,"componentType":5126,"count":120,"max":[1,1,1],"min":[-1,-1,-1],"type":"VEC3"},{"bufferView":54,"componentType":5126,"count":120,"max":[0.484375,0.765625],"min":[0.0009859375422820449,0],"type":"VEC2"},{"bufferView":55,"componentType":5123,"count":144,"max":[119],"min":[0],"type":"SCALAR"},{"bufferView":56,"componentType":5126,"count":24,"max":[0.14374999701976776,0.30000001192092896,0.21250000596046448],"min":[-0.14374999701976776,0.20000000298023224,-0.21250000596046448],"type":"VEC3"},{"bufferView":57,"componentType":5126,"count":24,"max":[1,1,1],"min":[-1,-1,-1],"type":"VEC3"},{"bufferView":58,"componentType":5126,"count":24,"max":[0.59375,0.515625],"min":[0.296875,0],"type":"VEC2"},{"bufferView":59,"componentType":5123,"count":36,"max":[23],"min":[0],"type":"SCALAR"},{"bufferView":60,"componentType":5126,"count":24,"max":[0.125,0.44999998807907104,0.18125000596046448],"min":[-0.125,0.05000000074505806,-0.18125000596046448],"type":"VEC3"},{"bufferView":61,"componentType":5126,"count":24,"max":[1,1,1],"min":[-1,-1,-1],"type":"VEC3"},{"bufferView":62,"componentType":5126,"count":24,"max":[0.515625,0.546875],"min":[0.0625,0.109375],"type":"VEC2"},{"bufferView":63,"componentType":5123,"count":36,"max":[23],"min":[0],"type":"SCALAR"},{"bufferView":64,"componentType":5126,"count":24,"max":[0.125,0.44999998807907104,0.18125000596046448],"min":[-0.125,0.05000000074505806,-0.18125000596046448],"type":"VEC3"},{"bufferView":65,"componentType":5126,"count":24,"max":[1,1,1],"min":[-1,-1,-1],"type":"VEC3"},{"bufferView":66,"componentType":5126,"count":24,"max":[0.515625,0.546875],"min":[0.0625,0.109375],"type":"VEC2"},{"bufferView":67,"componentType":5123,"count":36,"max":[23],"min":[0],"type":"SCALAR"},{"bufferView":68,"componentType":5126,"count":24,"max":[0.14374999701976776,0.30000001192092896,0.21250000596046448],"min":[-0.14374999701976776,0.20000000298023224,-0.21250000596046448],"type":"VEC3"},{"bufferView":69,"componentType":5126,"count":24,"max":[1,1,1],"min":[-1,-1,-1],"type":"VEC3"},{"bufferView":70,"componentType":5126,"count":24,"max":[0.59375,0.515625],"min":[0.296875,0],"type":"VEC2"},{"bufferView":71,"componentType":5123,"count":36,"max":[23],"min":[0],"type":"SCALAR"},{"bufferView":72,"componentType":5126,"count":120,"max":[0.11874999850988388,0.856249988079071,0.15625],"min":[-0.11874999850988388,-0.35624998807907104,-0.15625],"type":"VEC3"},{"bufferView":73,"componentType":5126,"count":120,"max":[1,1,1],"min":[-1,-1,-1],"type":"VEC3"},{"bufferView":74,"componentType":5126,"count":120,"max":[0.1294095516204834,0.1294095516204834],"min":[0,0],"type":"VEC2"},{"bufferView":75,"componentType":5123,"count":144,"max":[119],"min":[0],"type":"SCALAR"},{"bufferView":76,"componentType":5126,"count":5,"max":[1],"min":[0],"type":"SCALAR"},{"bufferView":77,"componentType":5126,"count":5,"max":[0.2164396196603775,0,0,1],"min":[-0.30070579051971436,0,0,0.9537169337272644],"type":"VEC4"},{"bufferView":78,"componentType":5126,"count":5,"max":[1],"min":[0],"type":"SCALAR"},{"bufferView":79,"componentType":5126,"count":5,"max":[0.258819043636322,0,0,1],"min":[-0.2164396196603775,0,0,0.9659258127212524],"type":"VEC4"},{"bufferView":80,"componentType":5126,"count":5,"max":[1],"min":[0],"type":"SCALAR"},{"bufferView":81,"componentType":5126,"count":5,"max":[0.2164396196603775,0,0,1],"min":[-0.3420201539993286,0,0,0.9396926164627075],"type":"VEC4"},{"bufferView":82,"componentType":5126,"count":3,"max":[0.75],"min":[0],"type":"SCALAR"},{"bufferView":83,"componentType":5126,"count":3,"max":[-0.1875,1.1375000476837158,0.0062500000931322575],"min":[-0.1875,1.1375000476837158,-0.05624999850988388],"type":"VEC3"},{"bufferView":84,"componentType":5126,"count":5,"max":[1],"min":[0],"type":"SCALAR"},{"bufferView":85,"componentType":5126,"count":5,"max":[0.1736481785774231,0,0,1],"min":[-0.2164396196603775,0,0,0.9762960076332092],"type":"VEC4"},{"bufferView":86,"componentType":5126,"count":3,"max":[0.75],"min":[0],"type":"SCALAR"},{"bufferView":87,"componentType":5126,"count":3,"max":[0,1.125,0.0625],"min":[0,1.0625,-0.0625],"type":"VEC3"}],"materials":[{"pbrMetallicRoughness":{"metallicFactor":0,"roughnessFactor":1,"baseColorTexture":{"index":0}},"alphaMode":"MASK","alphaCutoff":0.05,"doubleSided":true},{"pbrMetallicRoughness":{"metallicFactor":0,"roughnessFactor":1,"baseColorTexture":{"index":1}},"alphaMode":"MASK","alphaCutoff":0.05,"doubleSided":true},{"pbrMetallicRoughness":{"metallicFactor":0,"roughnessFactor":1,"baseColorTexture":{"index":2}},"alphaMode":"MASK","alphaCutoff":0.05,"doubleSided":true},{"pbrMetallicRoughness":{"metallicFactor":0,"roughnessFactor":1,"baseColorTexture":{"index":3}},"alphaMode":"MASK","alphaCutoff":0.05,"doubleSided":true}],"textures":[{"sampler":0,"source":0,"name":"belt"},{"sampler":1,"source":1,"name":"texture"},{"sampler":2,"source":2,"name":"wizard.png"},{"sampler":3,"source":3,"name":"limbs"}],"samplers":[{"magFilter":9728,"minFilter":9728,"wrapS":33071,"wrapT":33071},{"magFilter":9728,"minFilter":9728,"wrapS":33071,"wrapT":33071},{"magFilter":9728,"minFilter":9728,"wrapS":33071,"wrapT":33071},{"magFilter":9728,"minFilter":9728,"wrapS":33071,"wrapT":33071}],"images":[{"mimeType":"image/png","uri":"data:image/png;base64,"},{"mimeType":"image/png","uri":"data:image/png;base64,"},{"mimeType":"image/png","uri":"data:image/png;base64,"},{"mimeType":"image/png","uri":"data:image/png;base64,"}],"meshes":[{"primitives":[{"mode":4,"attributes":{"POSITION":0,"NORMAL":1,"TEXCOORD_0":2},"indices":3,"material":0}]},{"primitives":[{"mode":4,"attributes":{"POSITION":4,"NORMAL":5,"TEXCOORD_0":6},"indices":7,"material":1}]},{"primitives":[{"mode":4,"attributes":{"POSITION":8,"NORMAL":9,"TEXCOORD_0":10},"indices":11,"material":2}]},{"primitives":[{"mode":4,"attributes":{"POSITION":12,"NORMAL":13,"TEXCOORD_0":14},"indices":15,"material":2}]},{"primitives":[{"mode":4,"attributes":{"POSITION":16,"NORMAL":17,"TEXCOORD_0":18},"indices":19,"material":2}]},{"primitives":[{"mode":4,"attributes":{"POSITION":20,"NORMAL":21,"TEXCOORD_0":22},"indices":23,"material":2}]},{"primitives":[{"mode":4,"attributes":{"POSITION":24,"NORMAL":25,"TEXCOORD_0":26},"indices":27,"material":2}]},{"primitives":[{"mode":4,"attributes":{"POSITION":28,"NORMAL":29,"TEXCOORD_0":30},"indices":31,"material":2}]},{"primitives":[{"mode":4,"attributes":{"POSITION":32,"NORMAL":33,"TEXCOORD_0":34},"indices":35,"material":2}]},{"primitives":[{"mode":4,"attributes":{"POSITION":36,"NORMAL":37,"TEXCOORD_0":38},"indices":39,"material":3}]},{"primitives":[{"mode":4,"attributes":{"POSITION":40,"NORMAL":41,"TEXCOORD_0":42},"indices":43,"material":3}]},{"primitives":[{"mode":4,"attributes":{"POSITION":44,"NORMAL":45,"TEXCOORD_0":46},"indices":47,"material":3}]},{"primitives":[{"mode":4,"attributes":{"POSITION":48,"NORMAL":49,"TEXCOORD_0":50},"indices":51,"material":3}]},{"primitives":[{"mode":4,"attributes":{"POSITION":52,"NORMAL":53,"TEXCOORD_0":54},"indices":55,"material":3}]},{"primitives":[{"mode":4,"attributes":{"POSITION":56,"NORMAL":57,"TEXCOORD_0":58},"indices":59,"material":3}]},{"primitives":[{"mode":4,"attributes":{"POSITION":60,"NORMAL":61,"TEXCOORD_0":62},"indices":63,"material":3}]},{"primitives":[{"mode":4,"attributes":{"POSITION":64,"NORMAL":65,"TEXCOORD_0":66},"indices":67,"material":3}]},{"primitives":[{"mode":4,"attributes":{"POSITION":68,"NORMAL":69,"TEXCOORD_0":70},"indices":71,"material":3}]},{"primitives":[{"mode":4,"attributes":{"POSITION":72,"NORMAL":73,"TEXCOORD_0":74},"indices":75,"material":3}]}],"animations":[{"name":"walking","samplers":[{"input":76,"output":77,"interpolation":"LINEAR"},{"input":78,"output":79,"interpolation":"LINEAR"},{"input":80,"output":81,"interpolation":"LINEAR"},{"input":82,"output":83,"interpolation":"LINEAR"},{"input":84,"output":85,"interpolation":"LINEAR"},{"input":86,"output":87,"interpolation":"LINEAR"}],"channels":[{"sampler":0,"target":{"node":12,"path":"rotation"}},{"sampler":1,"target":{"node":15,"path":"rotation"}},{"sampler":2,"target":{"node":19,"path":"rotation"}},{"sampler":3,"target":{"node":19,"path":"translation"}},{"sampler":4,"target":{"node":23,"path":"rotation"}},{"sampler":5,"target":{"node":23,"path":"translation"}}]}]}