{"asset":{"version":"2.0","generator":"Blockbench 5.0.4 glTF exporter"},"scenes":[{"nodes":[13],"name":"blockbench_export"}],"scene":0,"nodes":[{"translation":[0,1.3500000000000025,0.1750000000000006],"name":"beveled_cuboid","mesh":0},{"rotation":[0.10452846326765346,0,0,0.9945218953682733],"translation":[0,1.4437500000000025,0.6250000000000009],"name":"beveled_cuboid","mesh":1},{"translation":[-0.49375,-0.1875,0.29375],"name":"beveled_cuboid","mesh":2},{"translation":[-0.375,1.625,0],"name":"LeftArn","children":[2]},{"translation":[0.49375,-0.1875,0.29375],"name":"beveled_cuboid","mesh":3},{"translation":[0.375,1.625,0],"name":"RightArm","children":[4]},{"translation":[0,1.6937500000000014,0.018750000000000017],"name":"beveled_cuboid","mesh":4},{"translation":[0,2.1249999999999982,0],"name":"sphere","mesh":5},{"translation":[0,1.79375,-0.22499999999999998],"name":"beveled_cuboid","mesh":6},{"translation":[0,1.9624999999999981,-0.05624999999999991],"name":"beveled_cuboid","mesh":7},{"name":"Head","children":[7,8,9]},{"translation":[0,-0.18125000000000005,-0.1875],"name":"Neck","children":[6,10]},{"name":"Spine","children":[0,1,3,5,11]},{"name":"Body","children":[12]}],"bufferViews":[{"buffer":0,"byteOffset":0,"byteLength":1152,"target":34962,"byteStride":12},{"buffer":0,"byteOffset":1152,"byteLength":1152,"target":34962,"byteStride":12},{"buffer":0,"byteOffset":2304,"byteLength":768,"target":34962,"byteStride":8},{"buffer":0,"byteOffset":3072,"byteLength":264,"target":34963},{"buffer":0,"byteOffset":3336,"byteLength":1152,"target":34962,"byteStride":12},{"buffer":0,"byteOffset":4488,"byteLength":1152,"target":34962,"byteStride":12},{"buffer":0,"byteOffset":5640,"byteLength":768,"target":34962,"byteStride":8},{"buffer":0,"byteOffset":6408,"byteLength":264,"target":34963},{"buffer":0,"byteOffset":6672,"byteLength":1152,"target":34962,"byteStride":12},{"buffer":0,"byteOffset":7824,"byteLength":1152,"target":34962,"byteStride":12},{"buffer":0,"byteOffset":8976,"byteLength":768,"target":34962,"byteStride":8},{"buffer":0,"byteOffset":9744,"byteLength":264,"target":34963},{"buffer":0,"byteOffset":10008,"byteLength":1152,"target":34962,"byteStride":12},{"buffer":0,"byteOffset":11160,"byteLength":1152,"target":34962,"byteStride":12},{"buffer":0,"byteOffset":12312,"byteLength":768,"target":34962,"byteStride":8},{"buffer":0,"byteOffset":13080,"byteLength":264,"target":34963},{"buffer":0,"byteOffset":13344,"byteLength":1152,"target":34962,"byteStride":12},{"buffer":0,"byteOffset":14496,"byteLength":1152,"target":34962,"byteStride":12},{"buffer":0,"byteOffset":15648,"byteLength":768,"target":34962,"byteStride":8},{"buffer":0,"byteOffset":16416,"byteLength":264,"target":34963},{"buffer":0,"byteOffset":16680,"byteLength":3168,"target":34962,"byteStride":12},{"buffer":0,"byteOffset":19848,"byteLength":3168,"target":34962,"byteStride":12},{"buffer":0,"byteOffset":23016,"byteLength":2112,"target":34962,"byteStride":8},{"buffer":0,"byteOffset":25128,"byteLength":720,"target":34963},{"buffer":0,"byteOffset":25848,"byteLength":1152,"target":34962,"byteStride":12},{"buffer":0,"byteOffset":27000,"byteLength":1152,"target":34962,"byteStride":12},{"buffer":0,"byteOffset":28152,"byteLength":768,"target":34962,"byteStride":8},{"buffer":0,"byteOffset":28920,"byteLength":264,"target":34963},{"buffer":0,"byteOffset":29184,"byteLength":1152,"target":34962,"byteStride":12},{"buffer":0,"byteOffset":30336,"byteLength":1152,"target":34962,"byteStride":12},{"buffer":0,"byteOffset":31488,"byteLength":768,"target":34962,"byteStride":8},{"buffer":0,"byteOffset":32256,"byteLength":264,"target":34963},{"buffer":0,"byteOffset":32520,"byteLength":20},{"buffer":0,"byteOffset":32540,"byteLength":60},{"buffer":0,"byteOffset":32600,"byteLength":20},{"buffer":0,"byteOffset":32620,"byteLength":80},{"buffer":0,"byteOffset":32700,"byteLength":12},{"buffer":0,"byteOffset":32712,"byteLength":36},{"buffer":0,"byteOffset":32748,"byteLength":20},{"buffer":0,"byteOffset":32768,"byteLength":80}],"buffers":[{"byteLength":32848,"uri":"data:application/octet-stream;base64,"}],"accessors":[{"bufferView":0,"componentType":5126,"count":96,"max":[0.3687500059604645,0.46875,0.375],"min":[-0.3687500059604645,0.03125,-0.375],"type":"VEC3"},{"bufferView":1,"componentType":5126,"count":96,"max":[1,1,1],"min":[-1,-1,-1],"type":"VEC3"},{"bufferView":2,"componentType":5126,"count":96,"max":[0.46875,0.46549612283706665],"min":[0,0.078125],"type":"VEC2"},{"bufferView":3,"componentType":5123,"count":132,"max":[95],"min":[0],"type":"SCALAR"},{"bufferView":4,"componentType":5126,"count":96,"max":[0.543749988079071,0.3062500059604645,0.586306095123291],"min":[-0.543749988079071,0.017819102853536606,-0.375],"type":"VEC3"},{"bufferView":5,"componentType":5126,"count":96,"max":[0.9753679633140564,1,0.7011399269104004],"min":[-0.9753679633140564,-1,-1],"type":"VEC3"},{"bufferView":6,"componentType":5126,"count":96,"max":[0.5078125,0.4296875],"min":[0,0],"type":"VEC2"},{"bufferView":7,"componentType":5123,"count":132,"max":[95],"min":[0],"type":"SCALAR"},{"bufferView":8,"componentType":5126,"count":96,"max":[0.6000000238418579,0.36250001192092896,0.40625],"min":[-0.6000000238418579,0.13750000298023224,-0.5],"type":"VEC3"},{"bufferView":9,"componentType":5126,"count":96,"max":[1,1,0.9789804220199585],"min":[-1,-1,-1],"type":"VEC3"},{"bufferView":10,"componentType":5126,"count":96,"max":[0.09375,0.09375],"min":[0,0],"type":"VEC2"},{"bufferView":11,"componentType":5123,"count":132,"max":[95],"min":[0],"type":"SCALAR"},{"bufferView":12,"componentType":5126,"count":96,"max":[0.6000000238418579,0.36250001192092896,0.40625],"min":[-0.6000000238418579,0.13750000298023224,-0.5],"type":"VEC3"},{"bufferView":13,"componentType":5126,"count":96,"max":[1,1,0.9789804220199585],"min":[-1,-1,-1],"type":"VEC3"},{"bufferView":14,"componentType":5126,"count":96,"max":[0.4609375,0.3359375],"min":[0,0],"type":"VEC2"},{"bufferView":15,"componentType":5123,"count":132,"max":[95],"min":[0],"type":"SCALAR"},{"bufferView":16,"componentType":5126,"count":96,"max":[0.16249999403953552,0.3812499940395355,0.17499999701976776],"min":[-0.16249999403953552,0.11874999850988388,-0.17499999701976776],"type":"VEC3"},{"bufferView":17,"componentType":5126,"count":96,"max":[1,1,1],"min":[-1,-1,-1],"type":"VEC3"},{"bufferView":18,"componentType":5126,"count":96,"max":[0.41874998807907104,0.4719218611717224],"min":[0.0003906250058207661,0.0234375],"type":"VEC2"},{"bufferView":19,"componentType":5123,"count":132,"max":[95],"min":[0],"type":"SCALAR"},{"bufferView":20,"componentType":5126,"count":264,"max":[0.25,0.25,0.25],"min":[-0.25,-0.25,-0.25],"type":"VEC3"},{"bufferView":21,"componentType":5126,"count":264,"max":[0.9659258127212524,0.9659258127212524,0.9659258127212524],"min":[-0.9659258127212524,-0.9659258127212524,-0.9659258127212524],"type":"VEC3"},{"bufferView":22,"componentType":5126,"count":264,"max":[0.4049881100654602,0.4453125],"min":[0.0012618857435882092,0.0010928511619567871],"type":"VEC2"},{"bufferView":23,"componentType":5123,"count":360,"max":[263],"min":[0],"type":"SCALAR"},{"bufferView":24,"componentType":5126,"count":96,"max":[0.125,0.30000001192092896,0.21875],"min":[-0.125,0.20000000298023224,-0.21875],"type":"VEC3"},{"bufferView":25,"componentType":5126,"count":96,"max":[1,1,1],"min":[-1,-1,-1],"type":"VEC3"},{"bufferView":26,"componentType":5126,"count":96,"max":[0.5043284296989441,0.45031481981277466],"min":[0,0.0923890471458435],"type":"VEC2"},{"bufferView":27,"componentType":5123,"count":132,"max":[95],"min":[0],"type":"SCALAR"},{"bufferView":28,"componentType":5126,"count":96,"max":[0.25,0.30000001192092896,0.05624999850988388],"min":[-0.25,0.20000000298023224,-0.05624999850988388],"type":"VEC3"},{"bufferView":29,"componentType":5126,"count":96,"max":[1,1,1],"min":[-1,-1,-1],"type":"VEC3"},{"bufferView":30,"componentType":5126,"count":96,"max":[0.48888280987739563,0.43242186307907104],"min":[0,0],"type":"VEC2"},{"bufferView":31,"componentType":5123,"count":132,"max":[95],"min":[0],"type":"SCALAR"},{"bufferView":32,"componentType":5126,"count":5,"max":[1],"min":[0],"type":"SCALAR"},{"bufferView":33,"componentType":5126,"count":5,"max":[0,-0.02500000037252903,0],"min":[0,-0.3499999940395355,0],"type":"VEC3"},{"bufferView":34,"componentType":5126,"count":5,"max":[1],"min":[0],"type":"SCALAR"},{"bufferView":35,"componentType":5126,"count":5,"max":[0.2538459002971649,-0.021809693425893784,0.13040195405483246,0.9905012249946594],"min":[0.03777549788355827,-0.050493091344833374,-0.18844278156757355,0.9473658204078674],"type":"VEC4"},{"bufferView":36,"componentType":5126,"count":3,"max":[1],"min":[0],"type":"SCALAR"},{"bufferView":37,"componentType":5126,"count":3,"max":[-0.375,1.625,0],"min":[-0.375,1.625,0],"type":"VEC3"},{"bufferView":38,"componentType":5126,"count":5,"max":[1],"min":[0],"type":"SCALAR"},{"bufferView":39,"componentType":5126,"count":5,"max":[0.21023690700531006,-0.0514446422457695,0.2320517897605896,0.9897634387016296],"min":[-0.03562427684664726,-0.12884286046028137,-0.04998816177248955,0.9483174085617065],"type":"VEC4"}],"materials":[{"pbrMetallicRoughness":{"metallicFactor":0,"roughnessFactor":1,"baseColorTexture":{"index":0}},"alphaMode":"MASK","alphaCutoff":0.05,"doubleSided":true}],"textures":[{"sampler":0,"source":0,"name":"duck"}],"samplers":[{"magFilter":9728,"minFilter":9728,"wrapS":33071,"wrapT":33071}],"images":[{"mimeType":"image/png","uri":"data:image/png;base64,"}],"meshes":[{"primitives":[{"mode":4,"attributes":{"POSITION":0,"NORMAL":1,"TEXCOORD_0":2},"indices":3,"material":0}]},{"primitives":[{"mode":4,"attributes":{"POSITION":4,"NORMAL":5,"TEXCOORD_0":6},"indices":7,"material":0}]},{"primitives":[{"mode":4,"attributes":{"POSITION":8,"NORMAL":9,"TEXCOORD_0":10},"indices":11,"material":0}]},{"primitives":[{"mode":4,"attributes":{"POSITION":12,"NORMAL":13,"TEXCOORD_0":14},"indices":15,"material":0}]},{"primitives":[{"mode":4,"attributes":{"POSITION":16,"NORMAL":17,"TEXCOORD_0":18},"indices":19,"material":0}]},{"primitives":[{"mode":4,"attributes":{"POSITION":20,"NORMAL":21,"TEXCOORD_0":22},"indices":23,"material":0}]},{"primitives":[{"mode":4,"attributes":{"POSITION":24,"NORMAL":25,"TEXCOORD_0":26},"indices":27,"material":0}]},{"primitives":[{"mode":4,"attributes":{"POSITION":28,"NORMAL":29,"TEXCOORD_0":30},"indices":31,"material":0}]}],"animations":[{"name":"flying","samplers":[{"input":32,"output":33,"interpolation":"LINEAR"},{"input":34,"output":35,"interpolation":"LINEAR"},{"input":36,"output":37,"interpolation":"LINEAR"},{"input":38,"output":39,"interpolation":"LINEAR"}],"channels":[{"sampler":0,"target":{"node":13,"path":"translation"}},{"sampler":1,"target":{"node":3,"path":"rotation"}},{"sampler":2,"target":{"node":3,"path":"translation"}},{"sampler":3,"target":{"node":5,"path":"rotation"}}]}]}